<svg id="Capa_1" enable-background="new 0 0 512.007 512.007" height="512" viewBox="0 0 512.007 512.007" width="512" xmlns="http://www.w3.org/2000/svg"><g><path d="m436.004 60.007c-55.913 0-110.039-16.392-156.562-47.402l-15.118-10.078c-2.52-1.685-5.42-2.527-8.32-2.527s-5.801.842-8.32 2.527l-15.117 10.078c-46.524 31.011-100.65 47.402-156.563 47.402-8.291 0-15 6.709-15 15v171.259c0 119.956 76.465 227.04 190.254 264.965 1.538.513 3.149.776 4.746.776s3.208-.264 4.746-.776c113.789-37.925 190.254-145.009 190.254-264.965v-171.259c0-8.291-6.709-15-15-15z" fill="#ff6b6b"/><path d="m451.004 246.266v-171.259c0-8.291-6.709-15-15-15-55.913 0-110.039-16.392-156.562-47.402l-15.118-10.078c-2.52-1.685-5.42-2.527-8.32-2.527v512.007c1.597 0 3.208-.264 4.746-.776 113.789-37.925 190.254-145.009 190.254-264.965z" fill="#e62e77"/><path d="m262.801 37.566-6.797-4.526-6.797 4.526c-47.285 31.523-101.704 49.394-158.203 52.09v156.61c0 105.352 66.094 199.706 165 234.877 98.906-35.171 165-129.525 165-234.877v-156.61c-56.499-2.696-110.918-20.567-158.203-52.09z" fill="#f3f5f9"/><path d="m421.004 246.266v-156.61c-56.499-2.695-110.918-20.566-158.203-52.09l-6.797-4.526v448.104c98.906-35.172 165-129.526 165-234.878z" fill="#e2dff4"/><circle cx="256.004" cy="256.007" fill="#ff6b6b" r="105"/><path d="m361.004 256.007c0-57.891-47.109-105-105-105v210c57.89 0 105-47.109 105-105z" fill="#e62e77"/><path d="m301.004 256.007c0 8.399-6.599 15-15 15h-15v15c0 8.399-6.599 15-15 15s-15-6.601-15-15v-15h-15c-8.401 0-15-6.601-15-15 0-8.401 6.599-15 15-15h15v-15c0-8.401 6.599-15 15-15s15 6.599 15 15v15h15c8.401 0 15 6.599 15 15z" fill="#f3f5f9"/><path d="m301.004 256.007c0 8.399-6.599 15-15 15h-15v15c0 8.399-6.599 15-15 15v-90c8.401 0 15 6.599 15 15v15h15c8.401 0 15 6.599 15 15z" fill="#e2dff4"/></g></svg>