<svg id="Capa_1" enable-background="new 0 0 512 512" height="512" viewBox="0 0 512 512" width="512" xmlns="http://www.w3.org/2000/svg"><g><path d="m391 256v180h-270v-180c0-74.401 60.601-135 135-135s135 60.599 135 135z" fill="#ff6b6b"/><path d="m391 256v180h-135v-315c74.399 0 135 60.599 135 135z" fill="#e62e77"/><path d="m316 271h-30c-11.7 0-21.899 4.499-30 11.7-8.101-7.202-18.3-11.7-30-11.7h-30c-8.401 0-15 6.599-15 15v60c0 8.399 6.599 15 15 15h30c5.4 0 10.201-1.201 15-2.701v47.701c0 8.399 6.599 15 15 15s15-6.601 15-15v-47.701c4.799 1.5 9.6 2.701 15 2.701h30c8.401 0 15-6.601 15-15v-60c0-8.401-6.599-15-15-15z" fill="#fcdf77"/><path d="m331 286v60c0 8.399-6.599 15-15 15h-30c-5.4 0-10.201-1.201-15-2.701v47.701c0 8.399-6.599 15-15 15v-138.3c8.101-7.202 18.3-11.7 30-11.7h30c8.401 0 15 6.599 15 15z" fill="#ffc178"/><path d="m271 15v61c0 8.399-6.599 15-15 15s-15-6.601-15-15v-61c0-8.401 6.599-15 15-15s15 6.599 15 15z" fill="#fcdf77"/><path d="m76 271h-30c-8.291 0-15-6.709-15-15s6.709-15 15-15h30c8.291 0 15 6.709 15 15s-6.709 15-15 15z" fill="#fcdf77"/><path d="m466 271h-30c-8.291 0-15-6.709-15-15s6.709-15 15-15h30c8.291 0 15 6.709 15 15s-6.709 15-15 15z" fill="#ffc178"/><path d="m92.611 178.993-51.958-30c-7.178-4.146-9.639-13.315-5.493-20.493 4.146-7.207 13.301-9.639 20.493-5.493l51.958 30c7.178 4.146 9.639 13.315 5.493 20.493-4.156 7.197-13.354 9.617-20.493 5.493z" fill="#fcdf77"/><path d="m338.5 113.104c-7.178-4.146-9.639-13.315-5.493-20.493l14.985-25.942c4.16-7.207 13.301-9.639 20.493-5.493 7.178 4.146 9.639 13.315 5.493 20.493l-14.985 25.942c-4.156 7.197-13.354 9.617-20.493 5.493z" fill="#ffc178"/><path d="m398.896 173.5c-4.146-7.178-1.685-16.348 5.493-20.493l51.958-30c7.148-4.146 16.318-1.714 20.493 5.493 4.146 7.178 1.685 16.348-5.493 20.493l-51.958 30c-7.153 4.132-16.345 1.691-20.493-5.493z" fill="#ffc178"/><path d="m153.007 107.611-14.985-25.942c-4.146-7.178-1.685-16.348 5.493-20.493 7.134-4.146 16.318-1.714 20.493 5.493l14.985 25.942c4.146 7.178 1.685 16.348-5.493 20.493-7.153 4.132-16.344 1.691-20.493-5.493z" fill="#fcdf77"/><path d="m446.607 455.396-55.607-49.396h-135-135l-55.607 49.396c-2.813 2.813-4.393 6.627-4.393 10.604v31c0 8.284 6.716 15 15 15h180 180c8.284 0 15-6.716 15-15v-31c0-3.977-1.58-7.791-4.393-10.604z" fill="#51489a"/><path d="m451 497v-31c0-3.977-1.58-7.791-4.393-10.604l-55.607-49.396h-135v106h180c8.284 0 15-6.716 15-15z" fill="#39326c"/><path d="m256 91v-91c8.401 0 15 6.599 15 15v61c0 8.399-6.599 15-15 15z" fill="#ffc178"/></g></svg>